HIERARCHY
ROOT hip
{
	OFFSET 0.000000 0.000000 0.000000 
	CHANNELS 6 Xposition Yposition Zposition Xrotation Zrotation Yrotation
	JOINT abdomen
	{
		OFFSET 0.000000 3.402643 0.000000 
		CHANNELS 3 Xrotation Zrotation Yrotation
		JOINT chest
		{
			OFFSET 0.000000 8.438565 -0.680529 
			CHANNELS 3 Xrotation Zrotation Yrotation
			JOINT neck
			{
				OFFSET 0.000000 10.207942 -0.272212 
				CHANNELS 3 Xrotation Zrotation Yrotation
				JOINT head
				{
					OFFSET 0.000000 3.130431 0.000000 
					CHANNELS 3 Xrotation Zrotation Yrotation
					End Site
					{
						OFFSET 0.000000 3.130435 0.000000 
					}
				}
			}
			JOINT lCollar
			{
				OFFSET 3.470700 6.669187 -0.816635 
				CHANNELS 3 Yrotation Zrotation Xrotation
				JOINT lShldr
				{
					OFFSET 3.198488 0.000000 0.000000 
					CHANNELS 3 Zrotation Yrotation Xrotation
					JOINT lForeArm
					{
						OFFSET 10.139888 0.000000 0.000000 
						CHANNELS 3 Yrotation Zrotation Xrotation
						JOINT lHand
						{
							OFFSET 8.370511 0.000000 0.000000 
							CHANNELS 3 Zrotation Yrotation Xrotation
							End Site
							{
								OFFSET 4.083176 0.000000 0.000000 
							}
						}
					}
				}
			}
			JOINT rCollar
			{
				OFFSET -3.470700 6.669187 -0.816635 
				CHANNELS 3 Yrotation Zrotation Xrotation
				JOINT rShldr
				{
					OFFSET -3.198488 0.000000 0.000000 
					CHANNELS 3 Zrotation Yrotation Xrotation
					JOINT rForeArm
					{
						OFFSET -10.139888 0.000000 0.000000 
						CHANNELS 3 Yrotation Zrotation Xrotation
						JOINT rHand
						{
							OFFSET -8.370511 0.000000 0.000000 
							CHANNELS 3 Zrotation Yrotation Xrotation
							End Site
							{
								OFFSET -4.083176 0.000000 0.000000 
							}
						}
					}
				}
			}
		}
	}
	JOINT lThigh
	{
		OFFSET 5.308129 -1.633274 1.361059 
		CHANNELS 3 Xrotation Zrotation Yrotation
		JOINT lShin
		{
			OFFSET -2.041588 -20.007561 0.000000 
			CHANNELS 3 Xrotation Zrotation Yrotation
			JOINT lFoot
			{
				OFFSET 0.000000 -19.190928 -1.224953 
				CHANNELS 3 Xrotation Yrotation Zrotation
				End Site
				{
					OFFSET 0.000000 -2.449906 4.627600 
				}
			}
		}
	}
	JOINT rThigh
	{
		OFFSET -5.308129 -1.633274 1.361059 
		CHANNELS 3 Xrotation Zrotation Yrotation
		JOINT rShin
		{
			OFFSET 2.041588 -20.007561 0.000000 
			CHANNELS 3 Xrotation Zrotation Yrotation
			JOINT rFoot
			{
				OFFSET 0.000000 -19.190928 -1.224953 
				CHANNELS 3 Xrotation Yrotation Zrotation
				End Site
				{
					OFFSET 0.000000 -2.449906 4.627600 
				}
			}
		}
	}
}
MOTION
Frames: 11
Frame Time: 0.016667
-4.011203 50.663589 54.892254 -2.143932 -1.291582 9.250299 24.066614 -0.272413 -4.961020 -13.597745 8.935139 -3.854829 -26.471510 -2.400848 2.022982 21.775591 -0.087873 1.142577 17.437819 -10.904291 -0.018297 -70.152946 -0.574865 22.215084 -42.497696 3.310868 41.505714 -7.475596 19.047234 -2.376137 -15.102842 3.099075 -0.085258 59.700848 -2.109896 25.744877 41.125042 -3.356331 37.379738 -8.666005 -4.318238 0.509476 1.805675 1.913776 18.028868 21.678696 -1.446817 -1.588378 -1.767672 25.409525 -10.716128 -14.009122 -12.065329 -7.550542 17.629696 1.405701 0.856885 9.653002 -5.031915 12.436287 
-4.004899 50.661533 54.921776 -2.143932 -1.291582 9.250299 24.066614 -0.272413 -4.961020 -13.422987 8.927191 -3.676641 -26.471510 -2.400848 2.022982 21.775591 -0.087873 1.142577 17.437819 -10.904291 -0.018297 -70.133797 -0.499262 22.717016 -42.615601 3.319102 41.745651 -7.537377 18.839895 -2.537099 -15.102842 3.099075 -0.085258 59.634472 -2.110990 25.650436 41.247166 -3.349071 37.249714 -8.666005 -4.318238 0.509476 1.792057 1.907147 18.028944 21.678696 -1.446816 -1.588378 -1.772960 25.408995 -10.717641 -14.011449 -12.077655 -7.550314 17.629328 1.405882 0.866641 9.652745 -5.036864 12.434873 
-3.999747 50.660332 54.946777 -2.147894 -1.290930 9.426034 24.069960 -0.321133 -4.804776 -13.422987 8.927191 -3.676641 -26.464918 -2.225190 2.013235 21.775591 -0.087873 1.142577 17.437819 -10.904291 -0.018297 -70.123917 -0.417298 23.209805 -42.365307 3.442587 41.855942 -7.705256 18.671434 -2.545364 -15.102842 3.099075 -0.085258 59.768143 -2.023018 25.453348 41.247166 -3.349071 37.249714 -8.666080 -4.494955 0.516657 1.792049 1.907151 18.028946 21.678696 -1.446815 -1.588378 -1.821964 25.106619 -10.854686 -14.011451 -12.077651 -7.550313 17.629696 1.405701 0.856885 9.477698 -5.251271 12.546179 
-3.995910 50.660206 54.967300 -2.142089 -1.290267 9.601991 24.069908 -0.321138 -4.795011 -13.422987 8.927191 -3.676641 -26.464918 -2.225190 2.013235 21.775845 -0.087878 0.976561 17.437819 -10.904291 -0.018297 -70.150909 -0.292061 23.513462 -42.112545 3.472011 42.130512 -8.055990 18.642010 -2.540921 -15.104730 3.274444 -0.047622 59.768143 -2.023018 25.453348 41.381626 -3.351387 37.108650 -8.666080 -4.494955 0.516657 1.802148 1.927256 17.853355 21.678694 -1.446829 -1.588380 -1.841693 25.091866 -10.846817 -14.011450 -12.077652 -7.550313 17.982838 1.396206 0.873629 9.599793 -5.587315 12.289932 
-3.992890 50.661034 54.983276 -2.146047 -1.289591 9.777725 24.069908 -0.321138 -4.795011 -13.422987 8.927191 -3.676641 -26.477934 -2.235180 1.837206 21.597069 -0.263634 0.976552 17.437819 -10.904291 -0.018297 -70.126289 -0.169982 23.771351 -41.648418 3.405562 42.450478 -8.283619 18.621780 -2.763675 -15.104730 3.274444 -0.047622 59.695026 -2.032203 25.377144 41.381626 -3.351387 37.108650 -8.666080 -4.494955 0.516657 1.802156 1.927254 17.853355 21.678694 -1.446833 -1.588381 -1.475133 24.957598 -10.990493 -13.679440 -12.097077 -8.090883 17.994682 1.200926 1.158670 9.654335 -5.543798 12.819743 
-3.990665 50.662968 54.994896 -2.146047 -1.289591 9.777725 24.240448 -0.486537 -4.843990 -13.424671 8.928903 -3.498451 -26.477934 -2.235180 1.837206 21.596901 -0.273398 0.976552 17.256649 -10.903160 -0.045787 -70.188667 0.008551 23.888947 -41.171253 3.335443 42.781902 -8.462416 18.610266 -2.772666 -15.095498 3.317692 -0.208207 59.695026 -2.032203 25.377144 41.523746 -3.237647 37.119064 -8.490609 -4.504736 0.513946 1.812375 1.957189 17.678623 21.687866 -1.456624 -1.590559 -1.463329 25.014624 -11.122179 -13.678829 -12.096385 -8.100587 17.994944 1.191148 1.167055 9.494442 -5.560600 12.804256 
-3.988779 50.665493 55.002335 -2.140237 -1.288903 9.953682 24.240448 -0.486537 -4.843990 -13.423580 8.753448 -3.496968 -26.490887 -2.245151 1.661177 21.597692 -0.273410 0.810538 17.256649 -10.903160 -0.045787 -70.126305 0.160644 23.890915 -40.564049 3.395319 43.094631 -8.634225 18.592152 -2.761920 -15.097131 3.493064 -0.170585 59.695026 -2.032203 25.377144 41.523746 -3.237647 37.119064 -8.490609 -4.504736 0.513946 2.048159 2.057920 17.667526 21.678694 -1.446839 -1.588382 -1.436373 24.956774 -10.955387 -13.715413 -12.308287 -8.077374 17.994942 1.191148 1.167056 9.449626 -5.853748 12.740615 
-3.987355 50.668377 55.006145 -2.144191 -1.288203 10.129417 24.243113 -0.535313 -4.687751 -13.599361 8.753448 -3.496968 -26.485434 -2.069453 1.651430 21.597742 -0.273411 0.800772 17.256649 -10.903160 -0.045787 -70.152191 0.366015 23.761341 -39.842136 3.587313 43.419205 -8.686151 18.568624 -2.923896 -15.097131 3.493064 -0.170585 59.695026 -2.032203 25.377144 41.523746 -3.237647 37.119064 -8.315051 -4.504881 0.509771 2.058012 1.872432 17.483292 21.678692 -1.446871 -1.588387 -1.567574 24.947977 -10.914695 -13.715415 -12.308287 -8.077374 17.994944 1.191144 1.167055 9.457833 -5.838960 12.714571 
-3.986194 50.671268 55.006641 -2.148143 -1.287491 10.305151 24.418804 -0.535320 -4.677986 -13.599361 8.753448 -3.496968 -26.489349 -2.089151 1.475409 21.600481 -0.097650 0.634765 17.256649 -10.903160 -0.045787 -70.296501 0.301162 23.389410 -39.157379 3.454506 43.821739 -8.862178 18.568090 -2.924978 -15.097131 3.493064 -0.170585 59.564384 -1.968573 25.485140 41.618778 -3.355364 37.209438 -8.315051 -4.504881 0.509771 2.066891 1.881076 17.306749 21.492853 -1.446820 -1.578707 -1.593668 24.999744 -11.090450 -13.510465 -12.269287 -8.097678 17.995554 1.181389 1.165713 9.624421 -6.012302 12.870396 
-3.985044 50.673927 55.004482 -2.142327 -1.286767 10.481107 24.418804 -0.535320 -4.677986 -13.599361 8.753448 -3.496968 -26.502689 -2.099070 1.299387 21.600779 -0.097653 0.458984 17.256649 -10.903160 -0.045787 -70.197495 0.492729 23.138603 -38.312267 3.537513 44.067062 -8.871550 18.736137 -2.924839 -15.089862 3.656106 -0.122947 59.564384 -1.968573 25.485140 41.618778 -3.355364 37.209438 -8.140271 -4.336551 0.511066 1.832919 1.969297 17.138187 21.494787 -1.626271 -1.765382 -1.413462 25.125360 -10.925028 -13.510463 -12.269291 -8.097678 17.995554 1.181386 1.165712 9.457433 -6.017359 12.877527 
-3.984068 50.676090 54.999855 -2.257704 -1.151670 10.656438 24.423056 -0.700744 -4.717160 -13.612300 8.579471 -3.326990 -26.502689 -2.099070 1.299387 21.600796 -0.097653 0.449218 17.256649 -10.903160 -0.045787 -70.217934 0.578920 22.705059 -37.609554 3.527416 44.336567 -8.871550 18.736137 -2.924839 -15.089862 3.656106 -0.122947 59.564384 -1.968573 25.485140 41.618778 -3.355364 37.209438 -8.140271 -4.336551 0.511066 1.844028 1.989638 16.795435 21.538713 -1.447047 -1.396256 -1.549228 24.942108 -10.985024 -13.452072 -12.386748 -7.712169 17.981398 1.415482 0.876279 9.743530 -6.310086 12.807832 
